<svg width="39" height="36" viewBox="0 0 39 36" fill="none" xmlns="http://www.w3.org/2000/svg">
<path fill-rule="evenodd" clip-rule="evenodd" d="M20.3269 35.7267L19.5 34.6611L18.6731 35.7267C19.1617 36.0911 19.8383 36.0911 20.3269 35.7267ZM19.5 5.2888C16.8465 1.01261 12.5516 -0.54478 8.58742 0.164942C3.98456 0.989003 0 4.87046 0 10.4708C0 13.4875 1.27214 16.5805 3.02921 19.4411C4.79794 22.3207 7.13532 25.0887 9.4391 27.4843C11.7476 29.8848 14.0513 31.9412 15.7755 33.3961C16.6386 34.1244 17.359 34.704 17.8653 35.1028C18.1185 35.3023 18.3183 35.4567 18.4558 35.562C18.5246 35.6146 18.5779 35.655 18.6144 35.6826L18.6567 35.7144L18.6681 35.723L18.6731 35.7267C18.6734 35.727 18.6731 35.7267 19.5 34.6611C20.3269 35.7267 20.3266 35.727 20.3269 35.7267L20.3319 35.723L20.3433 35.7144L20.3856 35.6826C20.4221 35.655 20.4754 35.6146 20.5442 35.562C20.6817 35.4567 20.8815 35.3023 21.1347 35.1028C21.641 34.704 22.3613 34.1244 23.2245 33.3961C24.9487 31.9412 27.2524 29.8848 29.5609 27.4843C31.8647 25.0887 34.2021 22.3207 35.9708 19.4411C37.7279 16.5805 39 13.4875 39 10.4708C39 4.87046 35.0154 0.989003 30.4126 0.164942C26.4484 -0.54478 22.1535 1.01261 19.5 5.2888ZM19.5 32.9553C19.0191 32.5753 18.3516 32.0366 17.5575 31.3666C15.8816 29.9525 13.6518 27.9613 11.4267 25.6475C9.19691 23.3288 7.00074 20.7159 5.36931 18.0598C3.72621 15.3848 2.73157 12.7874 2.73157 10.4708C2.73157 6.25384 5.68065 3.40741 9.07816 2.79914C12.3876 2.20665 16.3008 3.73517 18.2183 8.8424C18.416 9.36896 18.9276 9.71883 19.5 9.71883C20.0724 9.71883 20.584 9.36896 20.7817 8.8424C22.6992 3.73517 26.6124 2.20665 29.9218 2.79914C33.3193 3.40741 36.2684 6.25384 36.2684 10.4708C36.2684 12.7874 35.2738 15.3848 33.6307 18.0598C31.9993 20.7159 29.8031 23.3288 27.5733 25.6475C25.3482 27.9613 23.1184 29.9525 21.4425 31.3666C20.6484 32.0366 19.9809 32.5753 19.5 32.9553Z" fill="#EB3223"/>
</svg>
