<svg width="30" height="56" viewBox="0 0 30 56" fill="none" xmlns="http://www.w3.org/2000/svg">
<path fill-rule="evenodd" clip-rule="evenodd" d="M28.717 1.5729C28.9121 1.76747 29.0669 1.99862 29.1725 2.2531C29.2781 2.50757 29.3324 2.78038 29.3324 3.0559C29.3324 3.33142 29.2781 3.60423 29.1725 3.85871C29.0669 4.11319 28.9121 4.34433 28.717 4.53891L5.0602 28.1916L28.717 51.8442C29.1104 52.2375 29.3313 52.771 29.3313 53.3272C29.3313 53.8835 29.1104 54.4169 28.717 54.8102C28.3237 55.2035 27.7903 55.4245 27.234 55.4245C26.6778 55.4245 26.1444 55.2035 25.751 54.8102L0.615378 29.6746C0.420311 29.48 0.265547 29.2488 0.15995 28.9944C0.0543533 28.7399 0 28.4671 0 28.1916C0 27.916 0.0543533 27.6432 0.15995 27.3888C0.265547 27.1343 0.420311 26.9031 0.615378 26.7086L25.751 1.5729C25.9456 1.37783 26.1768 1.22307 26.4312 1.11747C26.6857 1.01187 26.9585 0.95752 27.234 0.95752C27.5096 0.95752 27.7824 1.01187 28.0368 1.11747C28.2913 1.22307 28.5225 1.37783 28.717 1.5729Z" fill="black"/>
</svg>
