<svg width="1920" height="1080" viewBox="0 0 1920 1080" fill="none" xmlns="http://www.w3.org/2000/svg">
<mask id="mask0_121_477" style="mask-type:luminance" maskUnits="userSpaceOnUse" x="0" y="0" width="1920" height="1080">
<path d="M1920 0H0V1080H1920V0Z" fill="white"/>
</mask>
<g mask="url(#mask0_121_477)">
<path d="M1920 0H0V1080H1920V0Z" fill="#FFE566"/>
<path d="M1305.33 270C1434.71 242.724 1609.17 176.316 1796.23 0H0V407.184C114.16 347.748 267.08 286.68 453.333 260.4C817.547 209.028 1000.99 334.176 1305.33 270Z" fill="#143272"/>
<path d="M1920 330.888C1717.97 522.288 1543.03 681.912 1404 716.4C1131.67 783.96 973.053 734.58 730.667 831.6C574.707 894.024 457.24 987.792 370.347 1080H1920V330.888Z" fill="#3F61A9"/>
<path d="M730.667 831.6C973.053 734.58 1131.67 783.96 1404 716.4C1543.03 681.912 1717.97 522.288 1920 330.888V0H1796.23C1609.17 176.316 1434.71 242.724 1305.33 270C1000.99 334.176 817.547 209.028 453.333 260.4C267.08 286.668 114.16 347.736 0 407.184V1080H370.347C457.24 987.792 574.707 894.024 730.667 831.6Z" fill="#29498E"/>
<mask id="mask1_121_477" style="mask-type:luminance" maskUnits="userSpaceOnUse" x="0" y="0" width="1067" height="960">
<path d="M1066.67 0H0V960H1066.67V0Z" fill="white"/>
</mask>
<g mask="url(#mask1_121_477)">
<path d="M-0.666565 766.8C501.176 766.8 908 423.223 908 -0.599976C908 -424.423 501.176 -768 -0.666565 -768C-502.509 -768 -909.333 -424.423 -909.333 -0.599976C-909.333 423.223 -502.509 766.8 -0.666565 766.8Z" fill="url(#paint0_radial_121_477)" fill-opacity="0.8"/>
</g>
<path d="M169.429 438.957C174.829 430.841 176.57 406.8 176.57 406.8C176.57 406.8 178.43 432 182.57 438.957C186.712 445.914 197.333 447.614 197.333 447.614C197.333 447.614 185.872 450.938 182.57 456.813C179.27 462.689 176.57 482.4 176.57 482.4C176.57 482.4 172.609 463.152 169.429 456.813C166.248 450.475 154.667 447.614 154.667 447.614C154.667 447.614 164.028 447.073 169.429 438.957Z" fill="#C2C2C2"/>
<path d="M1755.01 717.07C1762.95 705.089 1765.51 669.6 1765.51 669.6C1765.51 669.6 1768.24 706.8 1774.32 717.07C1780.4 727.34 1796 729.851 1796 729.851C1796 729.851 1779.16 734.758 1774.32 743.43C1769.47 752.103 1765.51 781.2 1765.51 781.2C1765.51 781.2 1759.69 752.787 1755.01 743.43C1750.35 734.073 1733.33 729.851 1733.33 729.851C1733.33 729.851 1747.08 729.052 1755.01 717.07Z" fill="#C2C2C2"/>
<path d="M1724.4 773.99C1728.45 767.935 1729.76 750 1729.76 750C1729.76 750 1731.16 768.8 1734.27 773.99C1737.37 779.18 1745.33 780.449 1745.33 780.449C1745.33 780.449 1736.73 782.929 1734.27 787.312C1731.79 791.694 1729.76 806.4 1729.76 806.4C1729.76 806.4 1726.79 792.041 1724.4 787.312C1722.01 782.582 1713.33 780.449 1713.33 780.449C1713.33 780.449 1720.36 780.046 1724.4 773.99Z" fill="#C2C2C2"/>
<path d="M388.658 170.104C395.24 160.183 397.361 130.8 397.361 130.8C397.361 130.8 399.629 161.601 404.675 170.104C409.721 178.606 422.667 180.685 422.667 180.685C422.667 180.685 408.697 184.747 404.675 191.928C400.652 199.108 397.361 223.2 397.361 223.2C397.361 223.2 392.534 199.675 388.658 191.928C384.781 184.181 370.667 180.685 370.667 180.685C370.667 180.685 382.076 180.023 388.658 170.104Z" fill="#C2C2C2"/>
<path d="M693.992 735.304C700.573 725.383 702.695 696 702.695 696C702.695 696 704.963 726.8 710.008 735.304C715.055 743.806 728 745.885 728 745.885C728 745.885 714.031 749.947 710.008 757.128C705.985 764.308 702.695 788.4 702.695 788.4C702.695 788.4 697.868 764.875 693.992 757.128C690.115 749.381 676 745.885 676 745.885C676 745.885 687.409 745.223 693.992 735.304Z" fill="#C2C2C2"/>
<path d="M1837.43 87.3572C1842.83 79.2406 1844.57 55.2002 1844.57 55.2002C1844.57 55.2002 1846.43 80.4002 1850.57 87.3572C1854.71 94.3143 1865.33 96.015 1865.33 96.015C1865.33 96.015 1853.87 99.3388 1850.57 105.214C1847.27 111.089 1844.57 130.8 1844.57 130.8C1844.57 130.8 1840.61 111.552 1837.43 105.214C1834.25 98.875 1822.67 96.015 1822.67 96.015C1822.67 96.015 1832.03 95.4738 1837.43 87.3572Z" fill="#C2C2C2"/>
<path d="M622.699 858.519C627.087 851.949 628.5 832.487 628.5 832.487C628.5 832.487 630.012 852.887 633.376 858.519C636.74 864.152 645.371 865.528 645.371 865.528C645.371 865.528 636.057 868.219 633.376 872.974C630.695 877.73 628.5 893.687 628.5 893.687C628.5 893.687 625.283 878.105 622.699 872.974C620.115 867.843 610.704 865.528 610.704 865.528C610.704 865.528 618.311 865.09 622.699 858.519Z" fill="#C2C2C2"/>
<path d="M1657.33 265.2C1663.22 265.2 1668 260.902 1668 255.6C1668 250.298 1663.22 246 1657.33 246C1651.44 246 1646.67 250.298 1646.67 255.6C1646.67 260.902 1651.44 265.2 1657.33 265.2Z" fill="#C2C2C2"/>
<path d="M76.0002 331.2C81.8912 331.2 86.6668 326.902 86.6668 321.6C86.6668 316.298 81.8912 312 76.0002 312C70.1091 312 65.3335 316.298 65.3335 321.6C65.3335 326.902 70.1091 331.2 76.0002 331.2Z" fill="#C2C2C2"/>
<path d="M576 604.8C581.891 604.8 586.667 600.502 586.667 595.2C586.667 589.898 581.891 585.6 576 585.6C570.109 585.6 565.333 589.898 565.333 595.2C565.333 600.502 570.109 604.8 576 604.8Z" fill="#C2C2C2"/>
<path d="M326.667 973.2C332.558 973.2 337.333 968.902 337.333 963.6C337.333 958.298 332.558 954 326.667 954C320.776 954 316 958.298 316 963.6C316 968.902 320.776 973.2 326.667 973.2Z" fill="#C2C2C2"/>
<path d="M1593.33 513.6C1602.91 513.6 1610.67 506.616 1610.67 498C1610.67 489.384 1602.91 482.4 1593.33 482.4C1583.76 482.4 1576 489.384 1576 498C1576 506.616 1583.76 513.6 1593.33 513.6Z" fill="#C2C2C2"/>
<path d="M1145.33 1022.4C1154.91 1022.4 1162.67 1015.42 1162.67 1006.8C1162.67 998.185 1154.91 991.2 1145.33 991.2C1135.76 991.2 1128 998.185 1128 1006.8C1128 1015.42 1135.76 1022.4 1145.33 1022.4Z" fill="#C2C2C2"/>
<path d="M1050.55 671.344C1051.61 666.965 1053.87 662.754 1053.62 658.252C1053.43 655.059 1051.99 652.042 1051.78 648.849C1051.1 638.137 1063.88 631.18 1066.07 620.665C1067.92 611.789 1061.74 603.039 1062.15 593.989C1062.37 589.433 1064.25 585.062 1063.69 580.413C1063.54 579.16 1063.18 577.93 1062.58 576.832C1059.93 572.006 1056.31 575.572 1052.27 575.924C1044.61 576.59 1036.02 573.259 1028.51 571.618C1025.12 570.878 1021.7 569.868 1018.94 567.774C1014.07 564.09 1012.09 557.8 1010.36 551.95C1008.34 545.154 1007.87 537.985 1009.04 530.992C1011.51 516.157 1013.85 515.483 1020.97 509.141C1031.85 499.44 1030.53 482.012 1029.23 478.76C1027.06 473.327 1044.59 476.557 1050.02 470.86C1052.74 468.019 1054.29 464.173 1053.78 460.264C1052.3 448.745 1035.63 450.034 1033.2 440.471C1031.37 433.258 1039.48 427.803 1046.28 424.822C1051.97 422.325 1057.74 419.243 1063.57 416.445C1046.45 403.689 1026.91 394.017 1005.78 388.209C1001.95 397.238 996.869 405.732 990.712 413.363C985.686 419.594 977.111 425.664 970.405 421.308C966.388 418.701 965.147 413.435 962.225 409.628C955.074 400.307 940.363 402.196 929.925 407.571C921.313 412.008 912.592 420.758 916.171 430.211C916.382 430.775 916.683 431.303 917.055 431.771C919.743 435.089 923.979 433.976 926.902 431.962C933.314 427.546 938.756 426.024 946.323 425.445C953.898 424.435 953.496 433.485 949.771 442.909C949.106 444.593 948.318 446.299 946.937 447.478C945.374 448.826 943.292 449.383 941.298 449.895C929.765 452.868 918.238 455.84 906.705 458.807C897.53 461.172 887.129 464.554 883.492 473.327C882.381 476.007 882.016 479.024 879.941 481.228C879.102 482.114 877.998 482.744 876.779 482.84C874.237 483.037 873.478 480.642 871.856 479.317C865.903 474.44 858.489 469.139 851.893 467.124C847.438 465.763 845.663 470.339 843.574 474.521C840.023 481.623 842.273 488.17 848.54 490.821C850.287 491.56 852.214 492.081 853.544 493.434C854.976 494.892 855.428 497.037 855.59 499.073C856.064 505.268 854.376 511.58 856.539 517.636C857.378 519.979 858.898 522.059 861.001 523.392C865.786 526.431 869.518 523.619 873.455 522.066C882.564 518.478 893.192 521.773 900.941 527.77C908.691 533.767 914.207 542.115 919.897 550.104C926.338 559.148 933.489 568.205 943.92 572.548C946.207 573.5 948.266 574.986 949.632 577.058C953.942 583.605 947.916 588.599 945.06 594.098C942.043 599.898 942.481 607.03 939.457 612.83C937.288 616.981 933.563 620.049 929.932 623C918.713 632.117 907.494 641.234 896.281 650.35C891.935 653.88 887.436 657.607 885.179 662.74C882.673 668.43 883.309 674.962 882.885 681.142C882.842 681.816 882.644 682.481 882.257 683.031C880.453 685.55 876.991 683.383 875.288 681.105C868.021 671.388 865.837 658.852 864.595 646.77C863.295 634.138 862.784 621.434 863.068 608.736C863.156 604.797 863.302 600.74 861.929 597.049C858.788 588.628 848.526 584.052 846.583 575.272C845.283 569.406 848.146 563.549 849.673 557.742C851.2 551.934 850.622 544.378 845.232 541.764C843.588 540.966 841.66 540.746 840.185 539.662C838.22 538.22 837.533 535.657 836.591 533.402C833.661 526.408 827.409 521.422 823.231 515.095C817.336 506.169 815.832 494.987 815.27 484.398C814.78 475.195 815.16 465.997 816.358 456.91C796.6 485.27 785 519.767 785 556.988C785 653.646 863.156 731.997 959.574 731.997C997.162 731.997 1031.97 720.091 1060.45 699.829C1052.64 692.609 1048.07 681.595 1050.56 671.315L1050.55 671.344Z" fill="#03DDFF"/>
<path d="M1005.77 388.217C1001.95 397.245 996.863 405.74 990.705 413.37C985.672 419.601 977.097 425.672 970.391 421.323C966.366 418.708 965.133 413.443 962.21 409.636C955.06 400.307 940.349 402.21 929.911 407.578C921.299 412.008 912.585 420.766 916.157 430.226C916.376 430.783 916.668 431.31 917.048 431.779C919.736 435.103 923.972 433.983 926.887 431.969C933.3 427.554 938.749 426.031 946.309 425.452C953.884 424.449 953.475 433.493 949.764 442.924C949.099 444.615 948.303 446.314 946.93 447.493C945.367 448.848 943.292 449.39 941.291 449.91C929.765 452.89 918.231 455.855 906.705 458.829C897.523 461.194 887.129 464.576 883.492 473.349C882.381 476.029 882.017 479.039 879.935 481.25C879.102 482.136 877.992 482.774 876.779 482.862C874.238 483.051 873.471 480.664 871.856 479.339C865.903 474.462 858.482 469.161 851.893 467.146C847.431 465.785 845.655 470.369 843.566 474.543C840.01 481.638 842.266 488.192 848.533 490.843C850.272 491.582 852.201 492.11 853.537 493.456C854.969 494.914 855.421 497.059 855.575 499.095C856.057 505.29 854.362 511.602 856.532 517.658C857.364 520.009 858.891 522.081 860.994 523.414C865.771 526.453 869.504 523.641 873.441 522.088C882.55 518.5 893.185 521.795 900.935 527.792C908.677 533.789 914.199 542.137 919.89 550.119C926.324 559.17 933.476 568.22 943.913 572.562C946.2 573.522 948.267 575.008 949.625 577.073C953.934 583.613 947.909 588.614 945.053 594.113C942.036 599.912 942.467 607.045 939.451 612.844C937.281 616.996 933.548 620.064 929.925 623.015C918.706 632.132 907.486 641.248 896.275 650.365C891.921 653.895 887.429 657.622 885.172 662.755C882.667 668.452 883.302 674.977 882.878 681.157C882.827 681.823 882.637 682.503 882.243 683.046C880.447 685.565 876.977 683.389 875.275 681.112C868.014 671.402 865.83 658.867 864.581 646.785C863.281 634.153 862.769 621.441 863.054 608.751C863.135 604.819 863.288 600.755 861.907 597.064C858.767 588.643 848.504 584.06 846.561 575.294C845.268 569.428 848.124 563.564 849.651 557.764C851.178 551.956 850.608 544.4 845.21 541.786C843.566 540.988 841.638 540.76 840.163 539.684C838.198 538.242 837.504 535.679 836.569 533.424C833.639 526.423 827.387 521.444 823.202 515.117C817.307 506.183 815.803 495.002 815.24 484.42C814.751 475.217 815.138 466.019 816.329 456.924C847.883 411.635 900.255 382 959.545 382C975.548 382 991.041 384.175 1005.76 388.209L1005.77 388.217Z" fill="#08CC36"/>
<path d="M1134.13 557.017C1134.13 616 1105.03 668.152 1060.44 699.859C1052.62 692.639 1048.04 681.626 1050.54 671.345C1051.6 666.965 1053.87 662.763 1053.61 658.252C1053.43 655.059 1051.98 652.042 1051.78 648.857C1051.1 638.137 1063.87 631.188 1066.06 620.673C1067.9 611.797 1061.73 603.054 1062.15 593.996C1062.36 589.442 1064.25 585.07 1063.68 580.42C1063.53 579.175 1063.18 577.946 1062.57 576.839C1059.93 572.014 1056.31 575.572 1052.26 575.931C1044.6 576.598 1036.01 573.266 1028.5 571.626C1025.12 570.887 1021.69 569.883 1018.93 567.781C1014.06 564.099 1012.09 557.8 1010.35 551.958C1008.33 545.17 1007.85 537.994 1009.02 531.007C1011.51 516.172 1013.83 515.491 1020.95 509.157C1031.84 499.455 1030.51 482.026 1029.22 478.775C1027.04 473.342 1044.57 476.572 1050.01 470.882C1052.73 468.034 1054.28 464.189 1053.77 460.286C1052.29 448.775 1035.61 450.057 1033.19 440.5C1031.35 433.288 1039.47 427.825 1046.28 424.852C1051.97 422.356 1057.73 419.272 1063.57 416.476C1106.38 448.373 1134.13 499.447 1134.13 557.04L1134.13 557.017Z" fill="#08CC36"/>
<path fill-rule="evenodd" clip-rule="evenodd" d="M938.294 710.125C1034.88 710.125 1113.18 631.63 1113.18 534.803C1113.18 491.958 1097.85 452.703 1072.39 422.249C1110.66 454.41 1135 502.695 1135 556.678C1135 653.505 1056.7 732 960.115 732C906.267 732 858.103 707.602 826.022 669.231C856.4 694.756 895.557 710.125 938.294 710.125Z" fill="#0C042A" fill-opacity="0.25"/>
<path d="M691.802 287.896C693.333 287.896 694.77 288.176 696.114 288.736C697.458 289.296 698.615 290.061 699.586 291.032C700.594 292.003 701.378 293.141 701.938 294.448C702.535 295.755 702.834 297.155 702.834 298.648V319.536C702.834 321.029 702.535 322.448 701.938 323.792C701.378 325.099 700.594 326.237 699.586 327.208C698.615 328.179 697.458 328.925 696.114 329.448C694.77 330.008 693.333 330.288 691.802 330.288C690.271 330.288 688.834 330.008 687.49 329.448C686.146 328.925 684.97 328.179 683.962 327.208C682.991 326.237 682.207 325.099 681.61 323.792C681.05 322.448 680.77 321.029 680.77 319.536V298.648C680.77 297.155 681.05 295.755 681.61 294.448C682.207 293.141 682.991 292.003 683.962 291.032C684.97 290.061 686.146 289.296 687.49 288.736C688.834 288.176 690.271 287.896 691.802 287.896ZM715.378 305.536H719.97V311.64H715.378V330.288H709.106V287.896H715.378V305.536ZM691.802 294.168C691.167 294.168 690.57 294.28 690.01 294.504C689.45 294.728 688.946 295.045 688.498 295.456C688.05 295.867 687.714 296.352 687.49 296.912C687.266 297.472 687.154 298.051 687.154 298.648V319.536C687.154 320.171 687.266 320.768 687.49 321.328C687.714 321.851 688.05 322.317 688.498 322.728C688.946 323.101 689.45 323.419 690.01 323.68C690.57 323.904 691.167 324.016 691.802 324.016C692.437 324.016 693.034 323.904 693.594 323.68C694.191 323.419 694.695 323.101 695.106 322.728C695.517 322.317 695.834 321.851 696.058 321.328C696.319 320.768 696.45 320.171 696.45 319.536V298.648C696.45 298.051 696.319 297.472 696.058 296.912C695.834 296.352 695.517 295.867 695.106 295.456C694.695 295.045 694.191 294.728 693.594 294.504C693.034 294.28 692.437 294.168 691.802 294.168ZM758.587 330.288H725.211V317.016H758.587V330.288ZM752.539 321.888H731.259V325.416H752.539V321.888ZM761.163 309.624V314.496H722.635V309.624H761.163ZM758.139 299.768H731.707V302.232H758.139V307.104H725.659V295.064H752.091V292.768H725.659V287.896H758.139V299.768ZM789.027 288.12V294.056H774.131V324.072H789.251V330.12H767.187V288.12H789.027ZM805.939 302.176V308.056H801.347V330.288H795.019V287.896H801.347V302.176H805.939ZM836.939 288.12C838.022 288.12 839.049 288.344 840.019 288.792C840.99 289.24 841.83 289.875 842.539 290.696C843.286 291.48 843.865 292.413 844.275 293.496C844.686 294.541 844.891 295.661 844.891 296.856C844.891 298.088 844.686 299.245 844.275 300.328C843.865 301.411 843.286 302.344 842.539 303.128C841.83 303.912 840.99 304.528 840.019 304.976C839.049 305.424 838.022 305.648 836.939 305.648H818.795C817.675 305.648 816.63 305.424 815.659 304.976C814.689 304.528 813.849 303.912 813.139 303.128C812.43 302.344 811.851 301.411 811.403 300.328C810.993 299.245 810.787 298.088 810.787 296.856C810.787 295.661 810.993 294.541 811.403 293.496C811.851 292.413 812.43 291.48 813.139 290.696C813.849 289.875 814.689 289.24 815.659 288.792C816.63 288.344 817.675 288.12 818.795 288.12H836.939ZM847.131 309.176V315.224H832.235V321.16H826.187V315.224H817.675V324.184H845.003V330.288H811.627V315.224H808.603V309.176H847.131ZM818.795 294.056C818.347 294.056 817.899 294.317 817.451 294.84C817.041 295.363 816.835 296.035 816.835 296.856C816.835 297.715 817.041 298.424 817.451 298.984C817.899 299.507 818.347 299.768 818.795 299.768H836.939C837.387 299.768 837.817 299.507 838.227 298.984C838.638 298.424 838.843 297.715 838.843 296.856C838.843 296.035 838.638 295.363 838.227 294.84C837.817 294.317 837.387 294.056 836.939 294.056H818.795ZM886.409 307.608L894.921 330.12H887.809L882.601 315.896L875.937 330.12H868.769L885.177 294.224H869.497V288.12H892.625V294.224L886.409 307.608ZM905.393 330.288H899.177V287.896H905.393V330.288ZM938.185 312.704L940.425 294.336H914.721V288.12H947.089V294.336L944.681 312.704H949.889V318.696H933.761V330.288H927.489V318.696H911.361V312.704H938.185ZM992.873 306.824V311.416H954.345V306.824H992.873ZM990.297 323.904H962.801V325.752H990.297V330.288H956.921V319.536H984.417V317.744H956.921V313.264H990.297V323.904ZM989.345 298.648H963.865V300.496H989.345V304.976H958.041V294.28H983.521V292.488H958.041V287.952H989.345V298.648ZM1032.15 307.608L1040.66 330.12H1033.55L1028.34 315.896L1021.68 330.12H1014.51L1030.92 294.224H1015.24V288.12H1038.37V294.224L1032.15 307.608ZM1051.13 330.288H1044.92V287.896H1051.13V330.288ZM1070.88 310.296H1057.33V304.248H1071.78L1073.18 294.168H1057.1V288.12H1080.23V294.168L1075.08 330.008H1068.19L1070.88 310.296ZM1094.06 330.288H1087.18V287.896H1094.06V330.288ZM1138.62 309.4V315.392H1109.5V324.184H1136.49V330.288H1103.11V315.392H1100.09V309.4H1138.62ZM1108.94 298.368H1135.82V304.416H1102.89V287.896H1108.94V298.368ZM1161.65 296.856C1161.65 295.661 1161.88 294.541 1162.33 293.496C1162.81 292.451 1163.45 291.536 1164.23 290.752C1165.05 289.931 1166 289.296 1167.09 288.848C1168.17 288.363 1169.33 288.12 1170.56 288.12H1187.69C1188.93 288.12 1190.08 288.363 1191.17 288.848C1192.25 289.296 1193.18 289.931 1193.97 290.752C1194.79 291.536 1195.42 292.451 1195.87 293.496C1196.35 294.541 1196.6 295.661 1196.6 296.856V299.656C1196.6 300.851 1196.35 301.989 1195.87 303.072C1195.42 304.117 1194.79 305.032 1193.97 305.816C1193.18 306.6 1192.25 307.235 1191.17 307.72C1190.08 308.168 1188.93 308.392 1187.69 308.392H1170.56C1169.33 308.392 1168.17 308.168 1167.09 307.72C1166 307.235 1165.05 306.6 1164.23 305.816C1163.45 305.032 1162.81 304.117 1162.33 303.072C1161.88 301.989 1161.65 300.851 1161.65 299.656V296.856ZM1198.39 314.216V319.816H1182.26V330.288H1175.99V319.816H1159.86V314.216H1198.39ZM1167.98 298.256C1167.98 299.376 1168.3 300.347 1168.93 301.168C1169.61 301.989 1170.58 302.4 1171.85 302.4H1186.41C1187.67 302.4 1188.63 301.989 1189.26 301.168C1189.93 300.347 1190.27 299.376 1190.27 298.256C1190.27 297.173 1189.93 296.221 1189.26 295.4C1188.63 294.579 1187.67 294.168 1186.41 294.168H1171.85C1170.58 294.168 1169.61 294.579 1168.93 295.4C1168.3 296.221 1167.98 297.173 1167.98 298.256ZM1239.81 330.288H1233.65V287.896H1239.81V330.288ZM1226.14 288.12V312.312H1210.69V324.184H1226.65V330.064H1204.41V305.872H1219.87V294.224H1204.41V288.12H1226.14Z" fill="white"/>
<path d="M597.448 790.896C598.941 790.896 600.36 791.195 601.704 791.792C603.048 792.352 604.205 793.136 605.176 794.144C606.184 795.115 606.968 796.253 607.528 797.56C608.125 798.867 608.424 800.285 608.424 801.816V802.264H615.536V790.896H622.2V833.288H615.536V820.576H608.424V822.368C608.424 823.899 608.125 825.336 607.528 826.68C606.968 827.987 606.184 829.144 605.176 830.152C604.205 831.123 603.048 831.888 601.704 832.448C600.36 833.008 598.941 833.288 597.448 833.288C595.917 833.288 594.48 833.008 593.136 832.448C591.792 831.888 590.616 831.123 589.608 830.152C588.6 829.144 587.797 827.987 587.2 826.68C586.64 825.336 586.36 823.899 586.36 822.368V801.816C586.36 800.285 586.64 798.867 587.2 797.56C587.797 796.253 588.6 795.115 589.608 794.144C590.616 793.136 591.792 792.352 593.136 791.792C594.48 791.195 595.917 790.896 597.448 790.896ZM597.448 797.28C596.776 797.28 596.16 797.411 595.6 797.672C595.04 797.896 594.536 798.213 594.088 798.624C593.677 798.997 593.341 799.464 593.08 800.024C592.856 800.584 592.744 801.181 592.744 801.816V822.368C592.744 823.003 592.856 823.6 593.08 824.16C593.341 824.683 593.677 825.149 594.088 825.56C594.536 825.971 595.04 826.307 595.6 826.568C596.16 826.792 596.776 826.904 597.448 826.904C598.045 826.904 598.624 826.792 599.184 826.568C599.781 826.307 600.285 825.971 600.696 825.56C601.144 825.149 601.48 824.683 601.704 824.16C601.965 823.6 602.096 823.003 602.096 822.368V801.816C602.096 801.181 601.965 800.584 601.704 800.024C601.48 799.464 601.144 798.997 600.696 798.624C600.285 798.213 599.781 797.896 599.184 797.672C598.624 797.411 598.045 797.28 597.448 797.28ZM608.424 814.528H615.536V808.312H608.424V814.528ZM650.344 790.896V815.088H636.064V826.96H650.848V832.84H629.792V808.648H644.072V797H629.792V790.896H650.344ZM665.184 833.288H659.024V811.056H653.48V805.176H659.024V790.896H665.184V833.288ZM706.713 809.376H674.233V790.896H680.729V795.264H700.161V790.896H706.713V809.376ZM709.737 812.624V818.224H694.281V824.216H688.345V818.224H680.617V827.24H707.609V833.288H674.233V818.224H671.209V812.624H709.737ZM680.729 803.776H700.161V800.808H680.729V803.776ZM726.345 797.28C725.71 797.28 725.113 797.411 724.553 797.672C723.993 797.896 723.489 798.213 723.041 798.624C722.593 798.997 722.257 799.464 722.033 800.024C721.809 800.584 721.697 801.181 721.697 801.816V822.424C721.697 823.059 721.809 823.656 722.033 824.216C722.257 824.739 722.593 825.205 723.041 825.616C723.489 826.027 723.993 826.363 724.553 826.624C725.113 826.848 725.71 826.96 726.345 826.96H728.361C728.996 826.96 729.574 826.848 730.097 826.624C730.62 826.363 731.086 826.027 731.497 825.616C731.908 825.168 732.225 824.683 732.449 824.16C732.673 823.6 732.785 823.021 732.785 822.424V801.816C732.785 801.219 732.673 800.659 732.449 800.136C732.225 799.576 731.908 799.091 731.497 798.68C731.124 798.269 730.657 797.933 730.097 797.672C729.574 797.411 729.014 797.28 728.417 797.28H726.345ZM728.697 790.896C730.153 790.896 731.516 791.195 732.785 791.792C734.054 792.389 735.156 793.192 736.089 794.2C737.06 795.171 737.806 796.328 738.329 797.672C738.889 798.979 739.169 800.36 739.169 801.816V822.424C739.169 823.88 738.889 825.261 738.329 826.568C737.769 827.875 737.004 829.032 736.033 830.04C735.1 831.048 733.98 831.832 732.673 832.392C731.366 832.989 729.985 833.288 728.529 833.288H726.345C724.814 833.288 723.377 833.008 722.033 832.448C720.689 831.888 719.513 831.123 718.505 830.152C717.534 829.144 716.75 827.987 716.153 826.68C715.593 825.373 715.313 823.955 715.313 822.424V801.816C715.313 800.285 715.593 798.867 716.153 797.56C716.75 796.253 717.534 795.115 718.505 794.144C719.513 793.136 720.689 792.352 722.033 791.792C723.377 791.195 724.814 790.896 726.345 790.896H728.697ZM751.153 833.288H744.265V790.896H751.153V833.288ZM782.927 827.8H804.599V790.896H810.927V833.288H776.991V818.168H782.927V827.8ZM788.639 797.168H775.087V791.12H798.943V797.168L791.439 802.488L799.279 807.528V814.808L786.511 806.016L775.087 814.136V806.352L788.639 797.168ZM846.127 817.328C847.21 817.328 848.236 817.552 849.207 818C850.178 818.411 851.018 818.971 851.727 819.68C852.474 820.389 853.052 821.229 853.463 822.2C853.874 823.171 854.079 824.216 854.079 825.336C854.079 826.419 853.874 827.445 853.463 828.416C853.052 829.387 852.474 830.245 851.727 830.992C851.018 831.701 850.178 832.261 849.207 832.672C848.236 833.083 847.21 833.288 846.127 833.288H827.815C826.732 833.288 825.706 833.083 824.735 832.672C823.764 832.261 822.906 831.701 822.159 830.992C821.45 830.245 820.89 829.387 820.479 828.416C820.068 827.445 819.863 826.419 819.863 825.336C819.863 824.216 820.068 823.171 820.479 822.2C820.89 821.229 821.45 820.389 822.159 819.68C822.906 818.971 823.764 818.411 824.735 818C825.706 817.552 826.732 817.328 827.815 817.328H846.127ZM840.135 791.12V797L833.919 801.816L840.135 806.632V813.744L829.383 805.4L818.071 814.192V807.08L831.007 797H818.071V791.12H840.135ZM847.695 799.184V790.896H853.911V814.584H847.695V805.288H842.319V799.184H847.695ZM827.815 823.376C827.292 823.376 826.844 823.563 826.471 823.936C826.098 824.309 825.911 824.776 825.911 825.336C825.911 825.859 826.098 826.307 826.471 826.68C826.844 827.053 827.292 827.24 827.815 827.24H846.127C846.65 827.24 847.098 827.053 847.471 826.68C847.844 826.307 848.031 825.859 848.031 825.336C848.031 824.776 847.844 824.309 847.471 823.936C847.098 823.563 846.65 823.376 846.127 823.376H827.815ZM869.231 827.632H889.391V790.896H895.663V802.096H900.255V808.2H895.663V833.288H862.959V821.136H869.231V827.632ZM875.391 792.408H883.567V798.288H879.367C880.226 799.035 880.917 799.893 881.439 800.864C881.962 801.797 882.223 802.805 882.223 803.888V807.304C882.223 808.424 881.943 809.488 881.383 810.496C880.861 811.467 880.133 812.325 879.199 813.072C878.266 813.781 877.183 814.341 875.951 814.752C874.719 815.163 873.431 815.368 872.087 815.368C870.706 815.368 869.418 815.163 868.223 814.752C867.029 814.341 865.983 813.781 865.087 813.072C864.191 812.325 863.482 811.467 862.959 810.496C862.437 809.488 862.175 808.424 862.175 807.304V804.056C862.175 802.861 862.418 801.779 862.903 800.808C863.426 799.837 864.117 798.997 864.975 798.288H860.831V792.408H869.119V789.384H875.391V792.408ZM876.455 805.064C876.455 804.579 876.343 804.112 876.119 803.664C875.895 803.179 875.597 802.768 875.223 802.432C874.85 802.059 874.402 801.779 873.879 801.592C873.357 801.405 872.815 801.312 872.255 801.312C871.658 801.312 871.098 801.405 870.575 801.592C870.09 801.779 869.642 802.059 869.231 802.432C868.858 802.768 868.559 803.179 868.335 803.664C868.111 804.112 867.999 804.579 867.999 805.064V806.016C867.999 806.539 868.111 807.024 868.335 807.472C868.559 807.92 868.858 808.331 869.231 808.704C869.642 809.04 870.09 809.301 870.575 809.488C871.098 809.675 871.658 809.768 872.255 809.768C872.815 809.768 873.357 809.675 873.879 809.488C874.402 809.301 874.85 809.04 875.223 808.704C875.597 808.331 875.895 807.92 876.119 807.472C876.343 807.024 876.455 806.539 876.455 806.016V805.064ZM1218.64 818.336H1240.04V790.896H1246.31V833.288H1212.37V815.144H1218.64V818.336ZM1218.64 827.408H1240.04V823.88H1218.64V827.408ZM1224.02 791.064C1225.21 791.064 1226.35 791.307 1227.44 791.792C1228.52 792.24 1229.45 792.856 1230.24 793.64C1231.02 794.424 1231.64 795.357 1232.08 796.44C1232.57 797.485 1232.81 798.624 1232.81 799.856V803.216C1232.81 804.448 1232.57 805.605 1232.08 806.688C1231.64 807.771 1231.02 808.704 1230.24 809.488C1229.45 810.272 1228.52 810.907 1227.44 811.392C1226.35 811.84 1225.21 812.064 1224.02 812.064H1219.26C1218.03 812.064 1216.87 811.84 1215.79 811.392C1214.7 810.907 1213.77 810.272 1212.99 809.488C1212.2 808.704 1211.57 807.771 1211.08 806.688C1210.64 805.605 1210.41 804.448 1210.41 803.216V799.856C1210.41 798.624 1210.64 797.485 1211.08 796.44C1211.57 795.357 1212.2 794.424 1212.99 793.64C1213.77 792.856 1214.7 792.24 1215.79 791.792C1216.87 791.307 1218.03 791.064 1219.26 791.064H1224.02ZM1226.65 800.92C1226.65 799.763 1226.3 798.829 1225.59 798.12C1224.88 797.411 1223.96 797.056 1222.84 797.056H1220.44C1219.28 797.056 1218.34 797.411 1217.64 798.12C1216.96 798.829 1216.63 799.763 1216.63 800.92V802.208C1216.63 803.328 1216.96 804.243 1217.64 804.952C1218.34 805.661 1219.28 806.016 1220.44 806.016H1222.84C1223.96 806.016 1224.88 805.661 1225.59 804.952C1226.3 804.243 1226.65 803.328 1226.65 802.208V800.92ZM1260.84 827.016H1279.49V833.12H1253.9V791.12H1260.84V827.016ZM1289.29 833.288H1282.68V790.896H1289.29V833.288ZM1318.72 791.12V797.056H1303.83V827.072H1318.95V833.12H1296.88V791.12H1318.72ZM1335.64 805.176V811.056H1331.04V833.288H1324.72V790.896H1331.04V805.176H1335.64Z" fill="white"/>
<path d="M953.446 833.61V806.8H948.546V820.03C948.546 822.037 948.219 823.88 947.566 825.56C946.959 827.193 946.096 828.617 944.976 829.83C943.903 831.043 942.643 831.977 941.196 832.63C939.749 833.283 938.186 833.61 936.506 833.61C934.826 833.61 933.263 833.283 931.816 832.63C930.369 831.977 929.086 831.043 927.966 829.83C926.893 828.617 926.029 827.193 925.376 825.56C924.769 823.88 924.466 822.037 924.466 820.03V794.27C924.466 792.263 924.769 790.42 925.376 788.74C926.029 787.06 926.893 785.613 927.966 784.4C929.086 783.187 930.369 782.253 931.816 781.6C933.263 780.947 934.826 780.62 936.506 780.62C938.186 780.62 939.749 780.947 941.196 781.6C942.643 782.253 943.903 783.187 944.976 784.4C946.096 785.613 946.959 787.06 947.566 788.74C948.219 790.42 948.546 792.263 948.546 794.27V799.24H953.446V780.62H960.726V833.61H953.446ZM964.366 833.61V780.62H971.716V833.61H964.366ZM940.706 794.27C940.706 792.683 940.356 791.377 939.656 790.35C938.956 789.277 937.906 788.74 936.506 788.74C935.106 788.74 934.056 789.277 933.356 790.35C932.656 791.377 932.306 792.683 932.306 794.27V820.03C932.306 821.57 932.656 822.877 933.356 823.95C934.056 824.977 935.106 825.49 936.506 825.49C937.906 825.49 938.956 824.977 939.656 823.95C940.356 822.877 940.706 821.57 940.706 820.03V794.27ZM1023.21 787.97L1019.78 825.49H1026.36V833.61H978.196V825.49H992.896V815.41H1001.09V825.49H1011.31L1012.78 808.97H981.276V801.34H1013.48L1014.74 787.97H981.276V780.9H1023.21V787.97ZM1050.48 794.48C1052.02 794.48 1053.46 794.76 1054.82 795.32C1056.22 795.88 1057.43 796.65 1058.46 797.63C1059.48 798.61 1060.28 799.753 1060.84 801.06C1061.44 802.367 1061.75 803.767 1061.75 805.26V822.62C1061.75 824.113 1061.44 825.513 1060.84 826.82C1060.28 828.127 1059.48 829.27 1058.46 830.25C1057.43 831.183 1056.22 831.93 1054.82 832.49C1053.46 833.05 1052.02 833.33 1050.48 833.33H1045.86C1044.32 833.33 1042.85 833.05 1041.45 832.49C1040.09 831.93 1038.9 831.183 1037.88 830.25C1036.9 829.27 1036.1 828.127 1035.5 826.82C1034.94 825.513 1034.66 824.113 1034.66 822.62V805.26C1034.66 803.767 1034.94 802.367 1035.5 801.06C1036.1 799.753 1036.9 798.61 1037.88 797.63C1038.9 796.65 1040.09 795.88 1041.45 795.32C1042.85 794.76 1044.32 794.48 1045.86 794.48H1050.48ZM1078.13 833.61H1070.22V780.62H1078.13V833.61ZM1048.66 825.84C1050.1 825.84 1051.34 825.42 1052.37 824.58C1053.39 823.693 1053.91 822.48 1053.91 820.94V806.87C1053.91 805.33 1053.39 804.117 1052.37 803.23C1051.34 802.343 1050.1 801.9 1048.66 801.9H1047.68C1046.23 801.9 1044.99 802.343 1043.97 803.23C1042.94 804.117 1042.43 805.33 1042.43 806.87V820.94C1042.43 822.48 1042.94 823.693 1043.97 824.58C1044.99 825.42 1046.23 825.84 1047.68 825.84H1048.66ZM1052.16 784.05H1063.15V791.05H1033.33V784.05H1044.32V778.73H1052.16V784.05ZM1100.85 780.62C1102.76 780.62 1104.56 780.97 1106.24 781.67C1107.92 782.37 1109.36 783.327 1110.58 784.54C1111.84 785.753 1112.82 787.177 1113.52 788.81C1114.26 790.443 1114.64 792.193 1114.64 794.06V799.31H1123.95V780.62H1131.86V833.61H1123.95V806.66H1114.64V820.17C1114.64 822.037 1114.26 823.81 1113.52 825.49C1112.82 827.123 1111.84 828.547 1110.58 829.76C1109.36 830.973 1107.92 831.907 1106.24 832.56C1104.56 833.26 1102.76 833.61 1100.85 833.61C1098.93 833.61 1097.14 833.26 1095.46 832.56C1093.78 831.907 1092.31 830.973 1091.05 829.76C1089.83 828.547 1088.85 827.123 1088.11 825.49C1087.41 823.81 1087.06 822.037 1087.06 820.17V794.06C1087.06 792.193 1087.41 790.443 1088.11 788.81C1088.85 787.177 1089.83 785.753 1091.05 784.54C1092.31 783.327 1093.78 782.37 1095.46 781.67C1097.14 780.97 1098.93 780.62 1100.85 780.62ZM1100.85 788.46C1100.05 788.46 1099.31 788.6 1098.61 788.88C1097.91 789.16 1097.28 789.557 1096.72 790.07C1096.16 790.583 1095.74 791.19 1095.46 791.89C1095.18 792.59 1095.04 793.313 1095.04 794.06V820.17C1095.04 820.963 1095.18 821.71 1095.46 822.41C1095.74 823.063 1096.16 823.647 1096.72 824.16C1097.28 824.627 1097.91 825.023 1098.61 825.35C1099.31 825.63 1100.05 825.77 1100.85 825.77C1101.64 825.77 1102.39 825.63 1103.09 825.35C1103.83 825.023 1104.46 824.627 1104.98 824.16C1105.49 823.647 1105.89 823.063 1106.17 822.41C1106.49 821.71 1106.66 820.963 1106.66 820.17V794.06C1106.66 793.313 1106.49 792.59 1106.17 791.89C1105.89 791.19 1105.49 790.583 1104.98 790.07C1104.46 789.557 1103.83 789.16 1103.09 788.88C1102.39 788.6 1101.64 788.46 1100.85 788.46ZM1159.62 826.12V816.04H1142.96V795.04H1176.42V788.46H1142.96V780.9H1183.98V802.11H1150.52V808.55H1184.4V816.04H1167.32V826.12H1187.55V833.61H1139.39V826.12H1159.62Z" fill="#FFE566"/>
<path d="M975 876C1028.39 869.281 1081.7 861.923 1135.17 855.918C1162.89 852.805 1190.17 850.117 1218 850" stroke="#FFE566" stroke-width="6" stroke-linecap="round"/>
<path d="M906 857C949.016 853.556 992.334 852.606 1035.45 851.077C1087.63 849.225 1139.82 847.648 1192 846" stroke="#FFE566" stroke-width="6" stroke-linecap="round"/>
</g>
<defs>
<radialGradient id="paint0_radial_121_477" cx="0" cy="0" r="1" gradientUnits="userSpaceOnUse" gradientTransform="translate(-0.666565 -0.599976) rotate(90) scale(767.4 908.667)">
<stop stop-color="#FFF08D" stop-opacity="0.6"/>
<stop offset="1" stop-color="#FFF08D" stop-opacity="0"/>
</radialGradient>
</defs>
</svg>
