<svg width="1920" height="1080" viewBox="0 0 1920 1080" fill="none" xmlns="http://www.w3.org/2000/svg">
<rect width="1920" height="1080" fill="#B9F6F6"/>
<path fill-rule="evenodd" clip-rule="evenodd" d="M1617.95 338.264C1622.68 338.264 1627.29 337.799 1631.69 336.924C1636.82 359.845 1660.91 377.195 1689.83 377.195C1707.81 377.195 1723.9 370.498 1734.75 359.926C1745.6 370.498 1761.7 377.195 1779.68 377.195C1805.64 377.195 1827.7 363.207 1835.66 343.758C1838.4 344.084 1841.2 344.252 1844.05 344.252C1876.72 344.252 1903.2 322.13 1903.2 294.84C1903.2 267.639 1876.9 245.571 1844.38 245.429C1844.66 243.465 1844.81 241.466 1844.81 239.439C1844.81 212.149 1818.33 190.026 1785.65 190.026C1765.95 190.026 1748.49 198.081 1737.74 210.464C1727 198.081 1709.54 190.026 1689.83 190.026C1657.16 190.026 1630.68 212.149 1630.68 239.439C1630.68 239.823 1630.69 240.206 1630.71 240.588C1626.59 239.835 1622.33 239.439 1617.95 239.439C1585.29 239.439 1558.81 261.561 1558.81 288.851C1558.81 316.141 1585.29 338.264 1617.95 338.264Z" fill="white"/>
<path fill-rule="evenodd" clip-rule="evenodd" d="M1471.08 957.552C1475.77 957.552 1480.32 957.093 1484.69 956.225C1489.77 978.935 1513.63 996.123 1542.29 996.123C1560.1 996.123 1576.04 989.488 1586.79 979.015C1597.54 989.488 1613.49 996.123 1631.3 996.123C1657.03 996.123 1678.89 982.266 1686.77 962.996C1689.49 963.319 1692.27 963.486 1695.09 963.486C1727.45 963.486 1753.69 941.567 1753.69 914.53C1753.69 887.58 1727.63 865.716 1695.41 865.575C1695.68 863.628 1695.84 861.648 1695.84 859.639C1695.84 832.602 1669.6 810.683 1637.23 810.683C1617.7 810.683 1600.4 818.663 1589.76 830.933C1579.11 818.663 1561.81 810.683 1542.29 810.683C1509.93 810.683 1483.69 832.602 1483.69 859.639C1483.69 860.02 1483.69 860.4 1483.7 860.778C1479.64 860.033 1475.41 859.639 1471.08 859.639C1438.72 859.639 1412.48 881.558 1412.48 908.596C1412.48 935.633 1438.72 957.552 1471.08 957.552Z" fill="white"/>
<path fill-rule="evenodd" clip-rule="evenodd" d="M461.454 151.539C464.693 151.539 467.845 151.223 470.865 150.622C474.379 166.324 490.872 178.207 510.685 178.207C522.996 178.207 534.025 173.619 541.456 166.378C548.886 173.619 559.914 178.207 572.225 178.207C590.016 178.207 605.128 168.626 610.574 155.304C612.453 155.527 614.374 155.643 616.328 155.643C638.703 155.643 656.841 140.489 656.841 121.796C656.841 103.163 638.821 88.048 616.546 87.9496C616.741 86.6049 616.84 85.2349 616.84 83.846C616.84 65.1536 598.702 50 576.327 50C562.827 50 550.869 55.517 543.507 63.9997C536.145 55.517 524.186 50 510.685 50C488.31 50 470.172 65.1536 470.172 83.846C470.172 84.1096 470.176 84.372 470.183 84.6344C467.372 84.1185 464.451 83.8473 461.454 83.8473C439.079 83.8473 420.941 99.0004 420.941 117.693C420.941 136.386 439.079 151.539 461.454 151.539Z" fill="white"/>
<path fill-rule="evenodd" clip-rule="evenodd" d="M85.3622 457.221C90.9086 457.221 96.3029 456.678 101.473 455.65C107.492 482.532 135.727 502.878 169.65 502.878C190.728 502.878 209.609 495.024 222.331 482.627C235.052 495.024 253.934 502.878 275.011 502.878C305.471 502.878 331.344 486.474 340.668 463.665C343.886 464.047 347.175 464.245 350.519 464.245C388.827 464.245 419.881 438.302 419.881 406.297C419.881 374.398 389.029 348.518 350.892 348.35C351.225 346.047 351.397 343.703 351.397 341.325C351.397 309.321 320.343 283.377 282.035 283.377C258.92 283.377 238.447 292.823 225.843 307.345C213.238 292.823 192.765 283.377 169.65 283.377C131.343 283.377 100.288 309.321 100.288 341.325C100.288 341.775 100.294 342.226 100.307 342.674C95.4934 341.791 90.4928 341.325 85.3622 341.325C47.0545 341.325 16 367.269 16 399.273C16 431.278 47.0545 457.221 85.3622 457.221Z" fill="white"/>
<path fill-rule="evenodd" clip-rule="evenodd" d="M622.671 1004.3C625.789 1004.3 628.822 1003.99 631.728 1003.41C635.113 1018.53 650.986 1029.96 670.059 1029.96C681.909 1029.96 692.525 1025.55 699.676 1018.58C706.829 1025.55 717.444 1029.96 729.295 1029.96C746.42 1029.96 760.966 1020.74 766.208 1007.92C768.017 1008.13 769.866 1008.24 771.747 1008.24C793.284 1008.24 810.743 993.658 810.743 975.665C810.743 957.731 793.398 943.18 771.956 943.086C772.144 941.791 772.24 940.473 772.24 939.136C772.24 921.143 754.781 906.557 733.243 906.557C720.249 906.557 708.737 911.868 701.652 920.032C694.565 911.868 683.055 906.557 670.059 906.557C648.521 906.557 631.062 921.143 631.062 939.136C631.062 939.39 631.066 939.642 631.072 939.894C628.366 939.398 625.556 939.136 622.671 939.136C601.133 939.136 583.674 953.723 583.674 971.715C583.674 989.71 601.133 1004.3 622.671 1004.3Z" fill="white"/>
</svg>
