<svg width="30" height="55" viewBox="0 0 30 55" fill="none" xmlns="http://www.w3.org/2000/svg">
<path fill-rule="evenodd" clip-rule="evenodd" d="M1.28295 0.615379C1.08788 0.809953 0.933122 1.0411 0.827525 1.29558C0.721928 1.55005 0.667573 1.82287 0.667573 2.09838C0.667573 2.3739 0.721928 2.64671 0.827525 2.90119C0.933122 3.15567 1.08788 3.38681 1.28295 3.58139L24.9398 27.234L1.28295 50.8867C0.889633 51.28 0.668671 51.8135 0.668671 52.3697C0.668671 52.9259 0.889633 53.4594 1.28295 53.8527C1.67627 54.246 2.20972 54.467 2.76595 54.467C3.32219 54.467 3.85564 54.246 4.24896 53.8527L29.3846 28.717C29.5797 28.5225 29.7345 28.2913 29.84 28.0368C29.9456 27.7824 30 27.5096 30 27.234C30 26.9585 29.9456 26.6857 29.84 26.4312C29.7345 26.1768 29.5797 25.9456 29.3846 25.751L4.24896 0.615379C4.05439 0.420313 3.82324 0.265549 3.56876 0.159952C3.31428 0.0543553 3.04147 0 2.76595 0C2.49044 0 2.21763 0.0543553 1.96315 0.159952C1.70867 0.265549 1.47752 0.420313 1.28295 0.615379Z" fill="black"/>
</svg>
