<svg width="37" height="38" viewBox="0 0 37 38" fill="none" xmlns="http://www.w3.org/2000/svg">
<path fill-rule="evenodd" clip-rule="evenodd" d="M15.1861 3.98005C8.95354 3.98005 3.90103 9.13492 3.90103 15.4938C3.90103 21.8526 8.95354 27.0075 15.1861 27.0075C21.4187 27.0075 26.4713 21.8526 26.4713 15.4938C26.4713 9.13492 21.4187 3.98005 15.1861 3.98005ZM0 15.4938C0 6.9368 6.79907 0 15.1861 0C23.5732 0 30.3723 6.9368 30.3723 15.4938C30.3723 19.119 29.1519 22.4534 27.1075 25.0928L37 35.1857L34.2416 38L24.3175 27.8749C21.776 29.829 18.6137 30.9875 15.1861 30.9875C6.79907 30.9875 0 24.0508 0 15.4938Z" fill="black"/>
</svg>
